<?xml version="1.0" encoding="UTF-8"?>
<!-- Generated by Pixelmator Pro 3.6.14 -->
<svg width="1080" height="569" viewBox="0 0 1080 569" xmlns="http://www.w3.org/2000/svg">
    <g id="Group">
        <path id="SAM-copy" fill="#000000" fill-rule="evenodd" stroke="none" d="M 727.893555 408 L 1080 408 L 1080 0.177246 L 873.309143 181.431152 L 666.618286 0.177246 L 666.618286 287.097473 L 521.202698 0.177246 L 314.511841 408 L 727.893555 408 Z"/>
        <path id="Rectangle-copy" fill="#000000" fill-rule="evenodd" stroke="none" d="M 1080 568.678345 L 0 568.678345 L 0 388.678345 L 1080 388.678345 L 1080 568.678345 Z M 931.815002 496.022949 L 917.691345 530.491333 C 925.762085 535.087158 933.832642 538.533936 941.90332 540.831848 C 949.973999 543.129761 958.044617 544.278687 966.115295 544.278687 C 981.864319 544.278687 994.656738 539.963196 1004.49292 531.332031 C 1014.329102 522.700867 1019.24707 511.575806 1019.24707 497.956543 C 1019.24707 489.605591 1016.809082 482.487793 1011.933044 476.602905 C 1007.057007 470.718018 1000.387573 466.822876 991.924561 464.917297 C 990.85968 464.693115 989.346436 464.356812 987.384827 463.908447 C 975.110657 461.274292 968.973633 458.219788 968.973633 454.744873 C 968.973633 452.895386 969.814331 451.452209 971.495728 450.415344 C 973.177124 449.378479 975.559082 448.860046 978.641602 448.860046 C 982.676941 448.860046 986.838318 449.686707 991.125916 451.340088 C 995.413452 452.993469 999.686951 455.389404 1003.946472 458.528015 L 1017.397583 426.329468 C 1010.447815 422.574341 1003.554199 419.772095 996.716492 417.922546 C 989.878845 416.072998 982.929199 415.148254 975.86731 415.148254 C 960.510559 415.148254 948.096497 419.295654 938.624634 427.590515 C 929.152771 435.885376 924.416931 446.646179 924.416931 459.873108 C 924.416931 468.392212 926.854919 475.51001 931.730957 481.226746 C 936.606995 486.943481 943.640686 490.922729 952.832336 493.164551 C 954.401611 493.500854 956.587402 493.977234 959.389771 494.59375 C 968.076965 496.387207 972.420471 498.993347 972.420471 502.41217 C 972.420471 504.37384 971.551758 505.929077 969.814331 507.078064 C 968.076904 508.22699 965.694946 508.801453 962.668457 508.801453 C 958.352844 508.801453 953.715088 507.778625 948.755005 505.73291 C 943.794861 503.687256 938.148254 500.450623 931.815002 496.022949 Z M 60.517494 417.922546 L 60.517494 541 L 143.83017 541 L 143.83017 507.624512 L 103.897247 507.624512 L 103.897247 494.677795 L 139.20636 494.677795 L 139.20636 463.151855 L 103.897247 463.151855 L 103.897247 451.298096 L 142.821335 451.298096 L 142.821335 417.922546 L 60.517494 417.922546 Z M 175.510834 541 L 175.510834 417.922546 L 211.324356 417.922546 C 222.701782 417.922546 232.411697 418.553101 240.454361 419.814087 C 248.49704 421.075195 255.040359 423.022766 260.084534 425.656921 C 270.733368 431.261597 278.902039 438.687622 284.590759 447.935303 C 290.27948 457.182983 293.123779 467.719543 293.123779 479.545349 C 293.123779 491.315125 290.293457 501.795654 284.632782 510.987244 C 278.972107 520.178894 270.789429 527.604919 260.084534 533.265625 C 254.872223 535.955872 248.258835 537.91748 240.244186 539.150452 C 232.229538 540.383484 221.496811 541 208.045654 541 L 175.510834 541 Z M 391.471405 496.106995 C 393.152802 488.54071 394.077545 482.73999 394.245697 478.704651 L 395.843018 478.704651 C 396.011139 482.73999 396.935883 488.512695 398.617279 496.022949 C 398.897522 497.312012 399.121704 498.320801 399.289856 499.049438 L 408.537476 541 L 447.125275 541 L 483.106934 417.922546 L 438.718353 417.922546 L 429.050385 472.147217 C 428.209686 476.911194 427.565155 481.268738 427.116791 485.220032 C 426.668396 489.171326 426.388184 492.884338 426.276093 496.359192 L 425.267242 496.359192 C 425.155151 491.539185 424.286469 485.122009 422.661102 477.107361 C 422.492981 476.322693 422.38089 475.762207 422.324829 475.425964 L 410.639191 417.922546 L 379.449493 417.922546 L 367.763855 475.341858 C 367.651764 475.790283 367.539673 476.378723 367.427582 477.107361 C 365.802246 485.065918 364.933533 491.483154 364.821442 496.359192 L 363.812592 496.359192 C 363.7005 492.884338 363.420288 489.171326 362.971924 485.220032 C 362.523529 481.268738 361.878998 476.911194 361.03833 472.147217 L 351.370361 417.922546 L 306.98175 417.922546 L 342.963409 541 L 381.551208 541 L 390.798859 499.049438 C 390.96698 498.320801 391.191162 497.340027 391.471405 496.106995 Z M 485.111145 541 L 528.9953 417.922546 L 578.259949 417.922546 L 621.303406 541 L 573.720154 541 L 569.768921 525.53125 L 536.393433 525.53125 L 532.610291 541 L 485.111145 541 Z M 641.886902 417.922546 L 641.886902 541 L 685.266663 541 L 685.266663 500.394531 L 706.788391 541 L 756.389282 541 L 723.518188 490.894714 C 730.80426 489.941895 736.590942 486.635193 740.87854 480.974548 C 745.166077 475.313843 747.309814 468.111938 747.309814 459.368713 C 747.309814 445.973633 743.050354 435.717285 734.531311 428.599365 C 726.012207 421.481445 713.68219 417.922546 697.540771 417.922546 L 641.886902 417.922546 Z M 778.906433 541 L 778.906433 417.922546 L 814.71991 417.922546 C 826.097351 417.922546 835.807251 418.553101 843.849976 419.814087 C 851.892639 421.075195 858.435974 423.022766 863.480103 425.656921 C 874.128967 431.261597 882.297607 438.687622 887.986328 447.935303 C 893.675049 457.182983 896.519348 467.719543 896.519348 479.545349 C 896.519348 491.315125 893.689087 501.795654 888.028381 510.987244 C 882.367676 520.178894 874.184998 527.604919 863.480103 533.265625 C 858.267822 535.955872 851.654419 537.91748 843.639771 539.150452 C 835.625122 540.383484 824.892395 541 811.441223 541 L 778.906433 541 Z M 219.395004 503.421021 C 229.371277 503.36499 236.657211 501.417419 241.253021 497.578186 C 245.848831 493.739014 248.146698 487.728149 248.146698 479.545349 C 248.146698 471.530701 245.946915 465.561829 241.547272 461.638611 C 237.147614 457.715332 230.408127 455.753723 221.328598 455.753723 L 219.395004 455.753723 L 219.395004 503.421021 Z M 822.790588 503.421021 C 832.766846 503.36499 840.052795 501.417419 844.648621 497.578186 C 849.244446 493.739014 851.542297 487.728149 851.542297 479.545349 C 851.542297 471.530701 849.342468 465.561829 844.942871 461.638611 C 840.543213 457.715332 833.803711 455.753723 824.724182 455.753723 L 822.790588 455.753723 L 822.790588 503.421021 Z M 543.791504 496.275146 L 562.202698 496.275146 L 558.419556 482.319641 C 556.570068 475.257751 555.30896 469.82135 554.636475 466.010193 C 553.963867 462.199036 553.543579 458.612122 553.375366 455.249329 L 552.618774 455.249329 C 552.450684 458.612122 552.030273 462.199036 551.357788 466.010193 C 550.685181 469.82135 549.424194 475.257751 547.574585 482.319641 L 543.791504 496.275146 Z M 685.266663 449.616699 L 692.160339 449.616699 C 696.363831 449.616699 699.600464 450.667542 701.870361 452.769287 C 704.140259 454.871033 705.275146 457.883484 705.275146 461.806702 C 705.275146 465.61792 704.140259 468.546265 701.870361 470.59198 C 699.600464 472.637695 696.363831 473.660522 692.160339 473.660522 L 685.266663 473.660522 L 685.266663 449.616699 Z"/>
        <g id="g1">
            <path id="Circle" fill="#850000" fill-rule="evenodd" stroke="none" d="M 353.015839 90.492065 C 353.015839 72.538452 338.461548 57.984161 320.507935 57.984161 C 302.554291 57.984161 288 72.538452 288 90.492065 C 288 108.445709 302.554291 123 320.507935 123 C 338.461548 123 353.015839 108.445709 353.015839 90.492065 Z"/>
            <path id="path1" fill="#000000" fill-rule="evenodd" stroke="none" d="M 274 228.492065 C 274 170.230408 226.769577 123 168.507919 123 C 110.246254 123 63.015846 170.230408 63.015846 228.492065 C 63.015846 286.753754 110.246254 333.984161 168.507919 333.984161 C 226.769577 333.984161 274 286.753754 274 228.492065 Z"/>
        </g>
    </g>
</svg>
